<mxfile host="app.diagrams.net" modified="2024-07-22T09:33:13.667Z" agent="Mozilla/5.0 (Windows NT 10.0; Win64; x64) AppleWebKit/537.36 (KHTML, like Gecko) Chrome/126.0.0.0 Safari/537.36 Edg/126.0.0.0" etag="0lW3lpOgMbylNulIlv38" version="24.6.5" type="github">
  <diagram id="wFE0QG_FPsp0jaGvCLVb" name="Page-1">
    <mxGraphModel dx="928" dy="656" grid="0" gridSize="10" guides="1" tooltips="1" connect="1" arrows="1" fold="1" page="0" pageScale="1" pageWidth="850" pageHeight="1100" math="0" shadow="0">
      <root>
        <mxCell id="0" />
        <mxCell id="1" parent="0" />
        <mxCell id="_5mSTuPxr-ZiKRkBDSY7-1" value="" style="swimlane;fontStyle=2;childLayout=stackLayout;horizontal=1;startSize=28;horizontalStack=1;resizeParent=1;resizeParentMax=0;resizeLast=0;collapsible=0;marginBottom=0;swimlaneFillColor=none;fontFamily=Permanent Marker;fontSize=16;points=[];verticalAlign=top;stackBorder=0;resizable=1;strokeWidth=2;sketch=1;disableMultiStroke=1;" parent="1" vertex="1">
          <mxGeometry x="160" y="80" width="180" height="440" as="geometry" />
        </mxCell>
        <object label="TO DO" status="New" id="_5mSTuPxr-ZiKRkBDSY7-2">
          <mxCell style="swimlane;strokeWidth=2;fontFamily=Permanent Marker;html=0;startSize=1;verticalAlign=bottom;spacingBottom=5;points=[];childLayout=stackLayout;stackBorder=20;stackSpacing=20;resizeLast=0;resizeParent=1;horizontalStack=0;collapsible=0;sketch=1;strokeColor=none;fillStyle=solid;fillColor=#A0522D;" parent="_5mSTuPxr-ZiKRkBDSY7-1" vertex="1">
            <mxGeometry y="28" width="180" height="412" as="geometry" />
          </mxCell>
        </object>
        <object label="Task 1&lt;br&gt;&lt;span style=&quot;font-weight: normal&quot;&gt;&lt;i&gt;&lt;font style=&quot;font-size: 10px&quot;&gt;%status%&lt;/font&gt;&lt;/i&gt;&lt;/span&gt;" placeholders="1" id="_5mSTuPxr-ZiKRkBDSY7-3">
          <mxCell style="whiteSpace=wrap;html=1;strokeWidth=2;fillColor=swimlane;fontStyle=1;spacingTop=0;rounded=1;arcSize=9;points=[];sketch=1;fontFamily=Permanent Marker;hachureGap=8;fillWeight=1;" parent="_5mSTuPxr-ZiKRkBDSY7-2" vertex="1">
            <mxGeometry x="20" y="21" width="140" height="80" as="geometry" />
          </mxCell>
        </object>
        <object label="Task 2&lt;br&gt;&lt;span style=&quot;font-weight: normal&quot;&gt;&lt;i&gt;&lt;font style=&quot;font-size: 10px&quot;&gt;%status%&lt;/font&gt;&lt;/i&gt;&lt;/span&gt;" placeholders="1" id="_5mSTuPxr-ZiKRkBDSY7-4">
          <mxCell style="whiteSpace=wrap;html=1;strokeWidth=2;fillColor=swimlane;fontStyle=1;spacingTop=0;rounded=1;arcSize=9;points=[];sketch=1;fontFamily=Permanent Marker;hachureGap=8;fillWeight=1;" parent="_5mSTuPxr-ZiKRkBDSY7-2" vertex="1">
            <mxGeometry x="20" y="121" width="140" height="80" as="geometry" />
          </mxCell>
        </object>
        <object label="Task 3&lt;br&gt;&lt;span style=&quot;font-weight: normal&quot;&gt;&lt;i&gt;&lt;font style=&quot;font-size: 10px&quot;&gt;%status%&lt;/font&gt;&lt;/i&gt;&lt;/span&gt;" placeholders="1" id="_5mSTuPxr-ZiKRkBDSY7-5">
          <mxCell style="whiteSpace=wrap;html=1;strokeWidth=2;fillColor=swimlane;fontStyle=1;spacingTop=0;rounded=1;arcSize=9;points=[];sketch=1;fontFamily=Permanent Marker;hachureGap=8;fillWeight=1;" parent="_5mSTuPxr-ZiKRkBDSY7-2" vertex="1">
            <mxGeometry x="20" y="221" width="140" height="80" as="geometry" />
          </mxCell>
        </object>
        <mxCell id="x2rGuBd2eSXXIJsXYDNd-17" value="" style="swimlane;fontStyle=2;childLayout=stackLayout;horizontal=1;startSize=28;horizontalStack=1;resizeParent=1;resizeParentMax=0;resizeLast=0;collapsible=0;marginBottom=0;swimlaneFillColor=none;fontFamily=Permanent Marker;fontSize=16;points=[];verticalAlign=top;stackBorder=0;resizable=1;strokeWidth=2;sketch=1;disableMultiStroke=1;" vertex="1" parent="1">
          <mxGeometry x="520" y="60" width="360" height="370" as="geometry" />
        </mxCell>
        <object label="监听模块" status="New" id="x2rGuBd2eSXXIJsXYDNd-18">
          <mxCell style="swimlane;strokeWidth=2;fontFamily=Permanent Marker;html=0;startSize=1;verticalAlign=bottom;spacingBottom=5;points=[];childLayout=stackLayout;stackBorder=20;stackSpacing=20;resizeLast=0;resizeParent=1;horizontalStack=0;collapsible=0;sketch=1;strokeColor=none;fillStyle=solid;fillColor=#A0522D;" vertex="1" parent="x2rGuBd2eSXXIJsXYDNd-17">
            <mxGeometry y="28" width="180" height="342" as="geometry" />
          </mxCell>
        </object>
        <object label="初始化监听" placeholders="1" id="x2rGuBd2eSXXIJsXYDNd-19">
          <mxCell style="whiteSpace=wrap;html=1;strokeWidth=2;fillColor=swimlane;fontStyle=1;spacingTop=0;rounded=1;arcSize=9;points=[];sketch=1;fontFamily=Permanent Marker;hachureGap=8;fillWeight=1;" vertex="1" parent="x2rGuBd2eSXXIJsXYDNd-18">
            <mxGeometry x="20" y="21" width="140" height="80" as="geometry" />
          </mxCell>
        </object>
        <object label="捕获系统调用" placeholders="1" id="x2rGuBd2eSXXIJsXYDNd-20">
          <mxCell style="whiteSpace=wrap;html=1;strokeWidth=2;fillColor=swimlane;fontStyle=1;spacingTop=0;rounded=1;arcSize=9;points=[];sketch=1;fontFamily=Permanent Marker;hachureGap=8;fillWeight=1;" vertex="1" parent="x2rGuBd2eSXXIJsXYDNd-18">
            <mxGeometry x="20" y="121" width="140" height="80" as="geometry" />
          </mxCell>
        </object>
        <object label="记录日志" placeholders="1" id="x2rGuBd2eSXXIJsXYDNd-21">
          <mxCell style="whiteSpace=wrap;html=1;strokeWidth=2;fillColor=swimlane;fontStyle=1;spacingTop=0;rounded=1;arcSize=9;points=[];sketch=1;fontFamily=Permanent Marker;hachureGap=8;fillWeight=1;" vertex="1" parent="x2rGuBd2eSXXIJsXYDNd-18">
            <mxGeometry x="20" y="221" width="140" height="80" as="geometry" />
          </mxCell>
        </object>
        <mxCell id="x2rGuBd2eSXXIJsXYDNd-26" value="" style="endArrow=classic;html=1;rounded=0;exitX=0.489;exitY=1.006;exitDx=0;exitDy=0;exitPerimeter=0;entryX=0.489;entryY=0.013;entryDx=0;entryDy=0;entryPerimeter=0;" edge="1" parent="x2rGuBd2eSXXIJsXYDNd-18" source="x2rGuBd2eSXXIJsXYDNd-19" target="x2rGuBd2eSXXIJsXYDNd-20">
          <mxGeometry width="50" height="50" relative="1" as="geometry">
            <mxPoint x="310" y="252" as="sourcePoint" />
            <mxPoint x="360" y="202" as="targetPoint" />
          </mxGeometry>
        </mxCell>
        <mxCell id="x2rGuBd2eSXXIJsXYDNd-30" value="" style="endArrow=classic;html=1;rounded=0;exitX=0.496;exitY=1.019;exitDx=0;exitDy=0;exitPerimeter=0;entryX=0.5;entryY=0.025;entryDx=0;entryDy=0;entryPerimeter=0;" edge="1" parent="x2rGuBd2eSXXIJsXYDNd-18" source="x2rGuBd2eSXXIJsXYDNd-20" target="x2rGuBd2eSXXIJsXYDNd-21">
          <mxGeometry width="50" height="50" relative="1" as="geometry">
            <mxPoint x="310" y="252" as="sourcePoint" />
            <mxPoint x="360" y="202" as="targetPoint" />
          </mxGeometry>
        </mxCell>
        <object label="日志信息查看模块" status="Completed" id="x2rGuBd2eSXXIJsXYDNd-22">
          <mxCell style="swimlane;strokeWidth=2;fontFamily=Permanent Marker;html=0;startSize=1;verticalAlign=bottom;spacingBottom=5;points=[];childLayout=stackLayout;stackBorder=20;stackSpacing=20;resizeLast=0;resizeParent=1;horizontalStack=0;collapsible=0;sketch=1;strokeColor=none;fillStyle=solid;fillColor=#1BA1E2;" vertex="1" parent="x2rGuBd2eSXXIJsXYDNd-17">
            <mxGeometry x="180" y="28" width="180" height="342" as="geometry" />
          </mxCell>
        </object>
        <object label="获取日志" placeholders="1" id="x2rGuBd2eSXXIJsXYDNd-23">
          <mxCell style="whiteSpace=wrap;html=1;strokeWidth=2;fillColor=swimlane;fontStyle=1;spacingTop=0;rounded=1;arcSize=9;points=[];sketch=1;fontFamily=Permanent Marker;hachureGap=8;fillWeight=1;" vertex="1" parent="x2rGuBd2eSXXIJsXYDNd-22">
            <mxGeometry x="20" y="21" width="140" height="80" as="geometry" />
          </mxCell>
        </object>
        <object label="筛选日志" placeholders="1" id="x2rGuBd2eSXXIJsXYDNd-24">
          <mxCell style="whiteSpace=wrap;html=1;strokeWidth=2;fillColor=swimlane;fontStyle=1;spacingTop=0;rounded=1;arcSize=9;points=[];sketch=1;fontFamily=Permanent Marker;hachureGap=8;fillWeight=1;" vertex="1" parent="x2rGuBd2eSXXIJsXYDNd-22">
            <mxGeometry x="20" y="121" width="140" height="80" as="geometry" />
          </mxCell>
        </object>
        <object label="显示日志" placeholders="1" id="x2rGuBd2eSXXIJsXYDNd-25">
          <mxCell style="whiteSpace=wrap;html=1;strokeWidth=2;fillColor=swimlane;fontStyle=1;spacingTop=0;rounded=1;arcSize=9;points=[];sketch=1;fontFamily=Permanent Marker;hachureGap=8;fillWeight=1;" vertex="1" parent="x2rGuBd2eSXXIJsXYDNd-22">
            <mxGeometry x="20" y="221" width="140" height="80" as="geometry" />
          </mxCell>
        </object>
        <mxCell id="x2rGuBd2eSXXIJsXYDNd-31" value="" style="endArrow=classic;html=1;rounded=0;exitX=0.496;exitY=0.988;exitDx=0;exitDy=0;exitPerimeter=0;" edge="1" parent="x2rGuBd2eSXXIJsXYDNd-22" source="x2rGuBd2eSXXIJsXYDNd-23" target="x2rGuBd2eSXXIJsXYDNd-24">
          <mxGeometry width="50" height="50" relative="1" as="geometry">
            <mxPoint x="130" y="252" as="sourcePoint" />
            <mxPoint x="180" y="202" as="targetPoint" />
          </mxGeometry>
        </mxCell>
        <mxCell id="x2rGuBd2eSXXIJsXYDNd-32" value="" style="endArrow=classic;html=1;rounded=0;exitX=0.486;exitY=1;exitDx=0;exitDy=0;exitPerimeter=0;entryX=0.493;entryY=0;entryDx=0;entryDy=0;entryPerimeter=0;" edge="1" parent="x2rGuBd2eSXXIJsXYDNd-22" source="x2rGuBd2eSXXIJsXYDNd-24" target="x2rGuBd2eSXXIJsXYDNd-25">
          <mxGeometry width="50" height="50" relative="1" as="geometry">
            <mxPoint x="130" y="252" as="sourcePoint" />
            <mxPoint x="180" y="202" as="targetPoint" />
          </mxGeometry>
        </mxCell>
        <mxCell id="x2rGuBd2eSXXIJsXYDNd-33" value="" style="edgeStyle=elbowEdgeStyle;elbow=horizontal;endArrow=classic;html=1;curved=0;rounded=1;endSize=8;startSize=8;shadow=0;flowAnimation=0;dashed=1;" edge="1" parent="x2rGuBd2eSXXIJsXYDNd-17">
          <mxGeometry width="50" height="50" relative="1" as="geometry">
            <mxPoint x="160" y="290" as="sourcePoint" />
            <mxPoint x="200" y="88" as="targetPoint" />
          </mxGeometry>
        </mxCell>
      </root>
    </mxGraphModel>
  </diagram>
</mxfile>
